# File created by Blade
# Date/Time:  Thu Jan 22 19:29:47 2015
#---------------------------------------------------------
:version 1.10
:name HOM
:units
  mass 1.0
  length 1.000000
  angle deg
:documentation
     Acclaim Skeleton File
:root
   axis xyz
   order TX TY TZ RX RY RZ
   position 0.000000 0.000000 0.000000
   orientation 0 0 0
:bonedata
   begin
      id 1
      name RightUpLeg_dum
      direction -1.000000 0.000000 0.000000
      length 4.478084
      axis 0.0 0.0 0.0 xyz
   end
   begin
      id 2
      name LeftUpLeg_dum
      direction 1.000000 0.000000 0.000000
      length 4.478084
      axis 0.0 0.0 0.0 xyz
   end
   begin
      id 3
      name Spine_dum
      direction 0.000000 1.000000 0.000000
      length 6.068208
      axis 0.0 0.0 0.0 xyz
   end
   begin
      id 4
      name RightUpLeg
      direction 0.000000 -1.000000 0.000000
      length 16.405774
      axis 0.0 0.0 0.0 xyz
      dof rx ry rz
   end
   begin
      id 5
      name RightLeg
      direction 0.000000 -1.000000 0.000000
      length 14.644143
      axis 0.0 0.0 0.0 xyz
      dof rx ry rz
   end
   begin
      id 6
      name RightFoot
      direction 0.000000 -0.258819 0.965926
      length 5.806150
      axis 15.0 0.0 0.0 xyz
      dof rx ry rz
   end
   begin
      id 7
      name RightToeBase
      direction 0.000000 0.000000 1.000000
      length 2.952750
      axis 0.0 0.0 0.0 xyz
      dof rx ry rz
   end
   begin
      id 8
      name LeftUpLeg
      direction 0.000000 -1.000000 0.000000
      length 16.405774
      axis 0.0 0.0 0.0 xyz
      dof rx ry rz
   end
   begin
      id 9
      name LeftLeg
      direction 0.000000 -1.000000 0.000000
      length 14.644143
      axis 0.0 0.0 0.0 xyz
      dof rx ry rz
   end
   begin
      id 10
      name LeftFoot
      direction 0.000000 -0.258819 0.965926
      length 5.806150
      axis 15.0 0.0 0.0 xyz
      dof rx ry rz
   end
   begin
      id 11
      name LeftToeBase
      direction 0.000000 0.000000 1.000000
      length 2.952750
      axis 0.0 0.0 0.0 xyz
      dof rx ry rz
   end
   begin
      id 12
      name Spine
      direction 0.000000 1.000000 0.000000
      length 0.000000
      axis 0.0 0.0 0.0 xyz
      dof rx ry rz
   end
   begin
      id 13
      name Spine_dum1
      direction 0.000000 1.000000 0.000000
      length 10.013923
      axis 0.0 0.0 0.0 xyz
   end
   begin
      id 14
      name Spine_dum2
      direction 0.000000 1.000000 0.000000
      length 10.013923
      axis 0.0 0.0 0.0 xyz
   end
   begin
      id 15
      name Spine_dum3
      direction 0.000000 1.000000 0.000000
      length 15.777476
      axis 0.0 0.0 0.0 xyz
   end
   begin
      id 16
      name RightShoulder
      direction -1.000000 0.000000 0.000000
      length 7.190220
      axis 0.0 0.0 90.0 xyz
      dof rx ry rz
   end
   begin
      id 17
      name RightArm
      direction -1.000000 0.000000 0.000000
      length 10.177469
      axis 0.0 0.0 90.0 xyz
      dof rx ry rz
   end
   begin
      id 18
      name RightForeArm
      direction -1.000000 0.000000 0.000000
      length 8.392114
      axis 0.0 0.0 90.0 xyz
      dof ry rz rx
   end
   begin
      id 19
      name RightHand
      direction -1.000000 0.000000 0.000000
      length 0.000000
      axis 0.0 0.0 90.0 xyz
      dof rx ry rz
   end
   begin
      id 20
      name RightHand_dum1
      direction -1.000000 0.000000 0.000000
      length 3.937000
      axis 0.0 0.0 90.0 xyz
   end
   begin
      id 21
      name RightHand_dum2
      direction 0.000000 0.000000 0.000000
      length 0.000000
      axis 0.0 0.0 90.0 xyz
   end
   begin
      id 22
      name RightHandThumb1
      direction 0.000000 0.000000 1.000000
      length 3.937000
      axis 0.0 0.0 90.0 xyz
      dof rx rz ry
   end
   begin
      id 23
      name LeftShoulder
      direction 1.000000 0.000000 0.000000
      length 7.190220
      axis 0.0 0.0 -90.0 xyz
      dof rx ry rz
   end
   begin
      id 24
      name LeftArm
      direction 1.000000 0.000000 0.000000
      length 10.177469
      axis 0.0 0.0 -90.0 xyz
      dof rx ry rz
   end
   begin
      id 25
      name LeftForeArm
      direction 1.000000 0.000000 0.000000
      length 8.392114
      axis 0.0 0.0 -90.0 xyz
      dof ry rz rx
   end
   begin
      id 26
      name LeftHand
      direction 1.000000 0.000000 0.000000
      length 0.000000
      axis 0.0 0.0 -90.0 xyz
      dof rx ry rz
   end
   begin
      id 27
      name LeftHand_dum1
      direction 1.000000 0.000000 0.000000
      length 3.937000
      axis 0.0 0.0 -90.0 xyz
   end
   begin
      id 28
      name LeftHand_dum2
      direction 0.000000 0.000000 0.000000
      length 0.000000
      axis 0.0 0.0 -90.0 xyz
   end
   begin
      id 29
      name LeftHandThumb1
      direction 0.000000 0.000000 1.000000
      length 3.937000
      axis 0.0 0.0 -90.0 xyz
      dof rx rz ry
   end
   begin
      id 30
      name Head
      direction 0.000000 1.000000 0.000000
      length 4.527550
      axis 0.0 0.0 0.0 xyz
      dof rx ry rz
   end
:hierarchy
   begin
      root RightUpLeg_dum LeftUpLeg_dum Spine_dum
      RightUpLeg_dum RightUpLeg
      LeftUpLeg_dum LeftUpLeg
      Spine_dum Spine
      RightUpLeg RightLeg
      RightLeg RightFoot
      RightFoot RightToeBase
      LeftUpLeg LeftLeg
      LeftLeg LeftFoot
      LeftFoot LeftToeBase
      Spine Spine_dum1 Spine_dum2 Spine_dum3
      Spine_dum1 RightShoulder
      Spine_dum2 LeftShoulder
      Spine_dum3 Head
      RightShoulder RightArm
      RightArm RightForeArm
      RightForeArm RightHand
      RightHand RightHand_dum1 RightHand_dum2
      RightHand_dum2 RightHandThumb1
      LeftShoulder LeftArm
      LeftArm LeftForeArm
      LeftForeArm LeftHand
      LeftHand LeftHand_dum1 LeftHand_dum2
      LeftHand_dum2 LeftHandThumb1
   end

# File created by Blade
# Date/Time:  Thu Jan 22 19:29:39 2015
# Frame Rate: 120.000 fps
#------------------------------------------------------
:FULLY-SPECIFIED
:DEGREES
327
root -3.774217 32.975510 0.758860 7.813397 -13.029865 1.140499
RightUpLeg -4.970290 0.960077 1.525941
RightLeg 5.161382 -0.000000 -0.000000
RightFoot -13.086286 -2.617026 0.322698
RightToeBase 4.292772 -0.000000 -0.000000
LeftUpLeg -2.719372 7.090803 2.853548
LeftLeg 7.480960 -0.000000 -0.000000
LeftFoot -16.604419 6.381857 -18.603892
LeftToeBase 8.633469 -0.000000 -0.000000
Spine -8.586060 -10.782923 -1.301997
RightShoulder -18.166245 -22.390662 -13.296776
RightArm 16.637302 -12.913982 79.716557
RightForeArm -4.295066 -0.000000 30.959300
RightHand 12.242843 -0.000000 -4.524613
RightHandThumb1 -24.326973 -0.000000 -32.862282
LeftShoulder -16.646756 -3.885409 26.132519
LeftArm 43.461363 -10.802224 -84.895194
LeftForeArm 10.471032 -0.000000 49.173622
LeftHand -5.853573 -0.000000 46.639434
LeftHandThumb1 -26.253704 0.000000 33.147579
Head 19.688263 27.955829 1.501428
328
root -3.762905 32.975950 0.767574 7.826620 -13.145007 1.106767
RightUpLeg -4.906886 1.529333 1.489861
RightLeg 5.016223 -0.000000 -0.000000
RightFoot -13.006974 -3.003825 0.508840
RightToeBase 4.318417 -0.000000 -0.000000
LeftUpLeg -2.711866 7.184459 2.847394
LeftLeg 7.528190 -0.000000 -0.000000
LeftFoot -16.670923 6.408687 -18.586537
LeftToeBase 8.638940 -0.000000 -0.000000
Spine -8.605353 -10.788230 -1.283645
RightShoulder -18.191918 -22.438750 -13.280871
RightArm 16.699254 -12.801207 79.764445
RightForeArm -4.365186 0.000000 31.014418
RightHand 12.326172 -0.000000 -4.423421
RightHandThumb1 -24.326973 -0.000000 -32.862282
LeftShoulder -16.566866 -3.947549 26.167540
LeftArm 43.595064 -10.675254 -85.013931
LeftForeArm 10.601039 0.000000 49.010889
LeftHand -5.824990 -0.000000 46.551198
LeftHandThumb1 -26.253704 0.000000 33.147579
Head 19.764482 27.997340 1.468422
329
root -3.749200 32.976198 0.779905 7.824612 -13.255401 1.104173
RightUpLeg -4.952878 1.502617 1.459735
RightLeg 5.121222 -0.000000 -0.000000
RightFoot -13.046263 -2.897420 0.454867
RightToeBase 4.301875 -0.000000 -0.000000
LeftUpLeg -2.697323 7.303358 2.807376
LeftLeg 7.571911 -0.000000 -0.000000
LeftFoot -16.700260 6.421562 -18.567038
LeftToeBase 8.586373 -0.000000 -0.000000
Spine -8.625067 -10.841720 -1.275597
RightShoulder -18.179291 -22.458180 -13.270274
RightArm 16.712328 -12.888683 79.686445
RightForeArm -4.376068 0.000000 31.178436
RightHand 12.306699 -0.000000 -4.487058
RightHandThumb1 -24.326973 -0.000000 -32.862282
LeftShoulder -16.525684 -3.971857 26.182909
LeftArm 43.737771 -10.525535 -85.074460
LeftForeArm 10.689839 -0.000000 48.845051
LeftHand -5.828768 -0.000000 46.460692
LeftHandThumb1 -26.253704 0.000000 33.147579
Head 19.842716 28.085786 1.428407
330
root -3.736274 32.976040 0.793403 7.814879 -13.362711 1.091828
RightUpLeg -4.988935 1.386654 1.440352
RightLeg 5.228599 -0.000000 -0.000000
RightFoot -13.084174 -2.684843 0.422806
RightToeBase 4.283099 -0.000000 -0.000000
LeftUpLeg -2.659415 7.392146 2.782706
LeftLeg 7.602435 -0.000000 -0.000000
LeftFoot -16.739712 6.425513 -18.545178
LeftToeBase 8.550132 -0.000000 -0.000000
Spine -8.633572 -10.888649 -1.255764
RightShoulder -18.192848 -22.483574 -13.267213
RightArm 16.717230 -12.797043 79.747429
RightForeArm -4.561901 -0.000000 31.289166
RightHand 12.405847 -0.000000 -4.618031
RightHandThumb1 -24.326973 -0.000000 -32.862282
LeftShoulder -16.472014 -4.013897 26.196020
LeftArm 43.871447 -10.406257 -85.166723
LeftForeArm 10.891290 -0.000000 48.680886
LeftHand -5.834445 0.000000 46.402388
LeftHandThumb1 -26.253704 0.000000 33.147579
Head 19.910253 28.161881 1.374135
331
root -3.716811 32.975789 0.806857 7.803187 -13.476483 1.105606
RightUpLeg -5.096692 1.045118 1.409121
RightLeg 5.468962 -0.000000 -0.000000
RightFoot -13.184536 -2.340657 0.275155
RightToeBase 4.232964 -0.000000 -0.000000
LeftUpLeg -2.622609 7.416917 2.714512
LeftLeg 7.620232 -0.000000 -0.000000
LeftFoot -16.797155 6.516235 -18.544078
LeftToeBase 8.546613 -0.000000 -0.000000
Spine -8.641193 -10.961732 -1.234037
RightShoulder -18.189754 -22.501142 -13.282991
RightArm 16.767341 -12.772697 79.728947
RightForeArm -4.696760 -0.000000 31.392592
RightHand 12.477461 -0.000000 -4.485436
RightHandThumb1 -24.326973 -0.000000 -32.862282
LeftShoulder -16.483963 -4.034380 26.194149
LeftArm 44.012585 -10.242347 -85.209978
LeftForeArm 10.856569 0.000000 48.524406
LeftHand -5.931747 -0.000000 46.599485
LeftHandThumb1 -26.253704 0.000000 33.147579
Head 19.968947 28.268024 1.269756
332
root -3.702448 32.975633 0.820382 7.792017 -13.598461 1.108227
RightUpLeg -5.135333 1.020042 1.373378
RightLeg 5.576859 -0.000000 -0.000000
RightFoot -13.229401 -2.229686 0.239967
RightToeBase 4.214416 -0.000000 -0.000000
LeftUpLeg -2.577655 7.441966 2.669723
LeftLeg 7.635587 -0.000000 -0.000000
LeftFoot -16.857147 6.593771 -18.559405
LeftToeBase 8.568833 -0.000000 -0.000000
Spine -8.653742 -11.016035 -1.218217
RightShoulder -18.155517 -22.519756 -13.294976
RightArm 16.746821 -12.716367 79.746298
RightForeArm -4.775166 -0.000000 31.554686
RightHand 12.516809 -0.000000 -4.560811
RightHandThumb1 -24.326973 -0.000000 -32.862282
LeftShoulder -16.468998 -4.111953 26.219598
LeftArm 44.090658 -10.026319 -85.173575
LeftForeArm 10.986121 -0.000000 48.316438
LeftHand -5.977315 -0.000000 46.898683
LeftHandThumb1 -26.253704 0.000000 33.147579
Head 20.043233 28.392038 1.206835
333
root -3.689981 32.975687 0.826934 7.799313 -13.736146 1.083466
RightUpLeg -5.163897 1.219896 1.350137
RightLeg 5.611951 -0.000000 -0.000000
RightFoot -13.227961 -2.281294 0.317763
RightToeBase 4.231353 -0.000000 -0.000000
LeftUpLeg -2.563182 7.477281 2.658630
LeftLeg 7.675524 -0.000000 -0.000000
LeftFoot -16.924721 6.641386 -18.597918
LeftToeBase 8.580030 -0.000000 -0.000000
Spine -8.654689 -11.039255 -1.182625
RightShoulder -18.154382 -22.514591 -13.297057
RightArm 16.735895 -12.654944 79.775204
RightForeArm -4.909274 0.000000 31.713907
RightHand 12.500083 0.000000 -4.479530
RightHandThumb1 -24.326973 -0.000000 -32.862282
LeftShoulder -16.456627 -4.085392 26.208114
LeftArm 44.292465 -9.836700 -85.164931
LeftForeArm 11.078010 0.000000 48.148305
LeftHand -5.983529 -0.000000 46.941548
LeftHandThumb1 -26.253704 0.000000 33.147579
Head 20.074589 28.497820 1.142799
334
root -3.675583 32.976026 0.839937 7.790866 -13.872750 1.084796
RightUpLeg -5.164212 1.374893 1.296507
RightLeg 5.630272 -0.000000 -0.000000
RightFoot -13.237595 -2.285867 0.337775
RightToeBase 4.222049 -0.000000 -0.000000
LeftUpLeg -2.468697 7.310814 2.621081
LeftLeg 7.589555 -0.000000 -0.000000
LeftFoot -16.990118 6.846973 -18.727117
LeftToeBase 8.604760 -0.000000 -0.000000
Spine -8.665186 -11.067155 -1.167719
RightShoulder -18.187305 -22.566561 -13.279630
RightArm 16.807885 -12.666952 79.750743
RightForeArm -4.999966 -0.000000 31.838734
RightHand 12.393859 0.000000 -4.495253
RightHandThumb1 -24.326973 -0.000000 -32.862282
LeftShoulder -16.426425 -4.074388 26.205072
LeftArm 44.437545 -9.710467 -85.220126
LeftForeArm 11.103477 -0.000000 48.068964
LeftHand -6.258901 -0.000000 47.765581
LeftHandThumb1 -26.253704 0.000000 33.147579
Head 20.128018 28.591045 1.084546
335
root -3.668196 32.976682 0.849171 7.813750 -13.974207 1.038420
RightUpLeg -5.061181 2.045613 1.269609
RightLeg 5.396397 -0.000000 -0.000000
RightFoot -13.121522 -2.741596 0.575698
RightToeBase 4.278855 -0.000000 -0.000000
LeftUpLeg -2.464296 7.310595 2.640647
LeftLeg 7.631017 -0.000000 -0.000000
LeftFoot -17.066679 6.893438 -18.767083
LeftToeBase 8.565665 -0.000000 -0.000000
Spine -8.700131 -11.125684 -1.103677
RightShoulder -18.159890 -22.560237 -13.298875
RightArm 16.748653 -12.655233 79.760716
RightForeArm -5.041637 -0.000000 32.012886
RightHand 12.395884 0.000000 -4.410585
RightHandThumb1 -24.326973 -0.000000 -32.862282
LeftShoulder -16.391278 -4.138363 26.240915
LeftArm 44.464380 -9.573449 -85.253436
LeftForeArm 11.180505 -0.000000 47.993733
LeftHand -6.244827 -0.000000 47.885921
LeftHandThumb1 -26.253704 0.000000 33.147579
Head 20.210713 28.703379 1.047395
336
root -3.657257 32.975819 0.865685 7.791673 -14.075856 1.023826
RightUpLeg -5.010966 2.163115 1.249755
RightLeg 5.368628 -0.000000 -0.000000
RightFoot -13.114085 -2.781054 0.597541
RightToeBase 4.244787 -0.000000 -0.000000
LeftUpLeg -2.404461 7.308777 2.622765
LeftLeg 7.653508 -0.000000 -0.000000
LeftFoot -17.146383 6.962314 -18.793049
LeftToeBase 8.604629 -0.000000 -0.000000
Spine -8.705295 -11.190497 -1.064939
RightShoulder -18.135805 -22.585956 -13.315320
RightArm 16.730076 -12.613093 79.795454
RightForeArm -5.029367 -0.000000 32.159112
RightHand 12.366039 -0.000000 -4.521245
RightHandThumb1 -24.326973 -0.000000 -32.862282
LeftShoulder -16.378505 -4.058327 26.243128
LeftArm 44.616288 -9.407004 -85.284176
LeftForeArm 11.374656 -0.000000 47.908059
LeftHand -6.218752 -0.000000 47.744321
LeftHandThumb1 -26.253704 0.000000 33.147579
Head 20.297440 28.822099 1.006949
337
root -3.645686 32.975296 0.874987 7.787493 -14.185388 1.015633
RightUpLeg -5.027123 2.228056 1.223802
RightLeg 5.410791 -0.000000 -0.000000
RightFoot -13.141503 -2.762262 0.591993
RightToeBase 4.314281 -0.000000 -0.000000
LeftUpLeg -2.391984 7.312685 2.593759
LeftLeg 7.707925 -0.000000 -0.000000
LeftFoot -17.216679 7.049878 -18.793721
LeftToeBase 8.574630 -0.000000 -0.000000
Spine -8.702856 -11.238649 -1.039375
RightShoulder -18.152977 -22.616128 -13.303874
RightArm 16.747946 -12.567547 79.810664
RightForeArm -5.110337 -0.000000 32.315761
RightHand 12.303452 -0.000000 -4.390126
RightHandThumb1 -24.326973 -0.000000 -32.862282
LeftShoulder -16.418250 -3.904972 26.171937
LeftArm 44.923592 -9.216719 -85.296155
LeftForeArm 11.491862 -0.000000 47.803525
LeftHand -6.064680 0.000000 47.370367
LeftHandThumb1 -26.253704 0.000000 33.147579
Head 20.337385 28.931881 0.952293
